<svg version="1.2" xmlns="http://www.w3.org/2000/svg" viewBox="0 0 460 460" width="460" height="460"><style>.a{fill:none}.b{fill:#4faf3b}</style><filter id="f0"><feFlood flood-color="#f7ab00" flood-opacity="1" /><feBlend mode="normal" in2="SourceGraphic"/><feComposite in2="SourceAlpha" operator="in" /></filter><g filter="url(#f0)"><path fill-rule="evenodd" class="a" d="m21 0h417.5v459.2h-417.5z"/><path fill-rule="evenodd" class="b" d="m412.7 244.8l-13.5 5.5-3.7 12c-9.5-1.4-18.6-3.3-28.1-5.5l-10.6-1.4-4.1-12.8-4.3-1.8-7.3 1.8-9.5 5.1-11.7-3.7-9.5-8-9.2-2.9-6.2-10.3-6.9-14.6-5.2 1.9-5.8-3.7-3.7 4.4-5.4-0.4 1.8 4.8-0.7 2.5c1.8 5.9 4.3 11.7 6.5 17.6l4.8 2.5 1.4 3.7 6.6 4.4 0.8 4.4-1.1 3.6 1.1 3.7 2.5 2.9 1.1 3.3 1.5 2.5-0.8-7.6 2.6-5.5 2.6-1.1 2.9 3.3v6.2l-2.2 6.2 1.8 4 1.8-0.3 0.4 2.9 7.3-1.5c4.4 0.4 9.2 0.4 13.5 0.8 6.3-7 13.2-13.2 19.4-20.1l2.9-3.7 0.8 1.5-0.8 4.3-1.1 1.9 1.5 8.4 4.4 6.9 5.1 3.7 6.9 1.4 5.5 1.9c2.2 2.9 4.8 6.2 7 9.1l3.6 1.1v2.2c-1.8 2.9-3.6 5.8-5.1 8.8l-4 3.3-3.7 6.9-4.3-0.4-1.9 2.6-1.4 5.1 1.1 6.6-0.8 1.1h-4.4l-5.8 3.6-1.1 4.8-2.2 2.2h-5.8l-3.7 2.5v4.1l-4.7 2.9-5.2-1.1-6.2 3.3-4.4 0.7-6.9 2.6-1.8 4.3-0.4 3.3-9.5 4.1-15 4.7-8.4 7-4 0.3-2.2-0.3-5.5 4-6.2 1.8-8 0.4-2.6 0.7-2.2 2.6-2.6 0.7-1.4 2.5-4.8-0.3-2.9 1.4-6.6-0.3-2.5-5.9 0.3-5.5-1.4-2.9-1.9-7.3-2.5-4 1.8-0.4-1.1-4.4 1.1-1.8-0.3-4.4-1.1-4.4-3-2.9-0.7-4-4.7-3.7-5.2-8.4-2.5-8-6.6-6.9-4.4-1.9-6.2-9.5-1.1-6.9 0.4-6.2-5.5-11.4-4.4-4-5.1-2.2-3.3-5.8 0.4-2.2-2.6-5.5-2.9-2.2-3.7-7.7c-3.6-5.4-6.9-10.6-10.6-16h-4.7l1.4-5.9 0.4-3.7 1.1-4.3-0.4-1.5-2.5 4.4-2.2 8-2.6 5.5-2.2 1.8c-2.5-2.9-4.7-5.4-7.3-8.4l-6.6-15.3-1.1 1.1 4.1 11.3 5.8 11 7.3 16.4 3.7 5.9 2.9 5.8 8.4 11.3-1.8 1.9v6.6l10.9 9.1 1.9 2.2h-112.2v-76l-3-8.8 2.6-7-1.5-4 3.3-5.5 12.5-0.3c7.6 2.5 15.7 5.1 23 8l7.3-3.6 4-3.3 8.1-0.8 6.5 1.5 2.6 5.5 2.2-3.7 7.7 2.6 7.3 0.7 4.7-2.9 2.9-3.7-0.7-0.7 2.6-5.1 1.8-8.8 1.5-2.9h0.3l3.3-9.1 4.8-8.1v-0.3l-0.8-8.8 2.2-5.9-3.6-5.4 3.6-4.4-5.8 1.1-8.1-2.6-6.5 7-14.3 1.4-7.7-6.2-10.2-0.4-2.2 4.8-6.6 1.4-9.1-6.2-10.2 0.4-5.5-11.7-7-6.6 4.8-9.5-5.9-5.8 10.6-11.7 14.6-0.4 4.1-9.5 17.9 1.8 11.3-8 11-3.7 15.7-0.3 16.4 8.8 13.6 4.7 10.9-1.8 8.1 1.1 11.3-6.6 10.2-0.7 9.2 6.2 1.4 4.4-0.7 6.2 6.9 2.9 3.7 3.7 1.5 5.1 4.7 5.5 6.6 1.4 3.3-0.4 11.3-9.1 3.7-0.7 2.9 3.6-3.3 5.9 5.8 6.2 2.2-0.7 3 8.7 9.1 2.6 6.6 6.2 13.5 2.2 14.6-3.3 0.7-2.9 8.5-2.2 7.3-7.3 6.2 0.4 4-2.2 6.6 1.1 10.6 6.2 7.6 1.4 11 10.6 7 0.4 0.7 9.9c-2.2 7.6-4.4 14.9-6.6 22.6l4 1.8-4 6.3 2.9 9.1 0.8 6.9 7.3 1.9 0.7 6.9-8.4 9.9 4.7 5.8 3.7 6.6 9.1 4.4 0.4 9.5 4.4 1.8zm-272.3-97.6l-6.2 5.2c0.4 0.7 0.7 1.8 1.1 2.9l-9.9 4.7-4.7-1.4-2.2-4.8c1.8 0 3.3-0.3 5.1-0.3l1.1-2.6h6.9z"/></g></svg>